<svg width="16" height="16" viewBox="0 0 16 16" fill="none" xmlns="http://www.w3.org/2000/svg">
<path fill-rule="evenodd" clip-rule="evenodd" d="M3 4.8C3 4.35818 3.39505 4 3.88235 4H12.1176C12.6049 4 13 4.35818 13 4.8C13 5.24182 12.6049 5.6 12.1176 5.6H3.88235C3.39505 5.6 3 5.24182 3 4.8ZM3.88235 7.2C3.39505 7.2 3 7.55818 3 8C3 8.44182 3.39505 8.8 3.88235 8.8H8.58824C9.07554 8.8 9.47059 8.44182 9.47059 8C9.47059 7.55818 9.07554 7.2 8.58824 7.2H3.88235Z" fill="#37352F"/>
<path d="M3.88235 10.4C3.39505 10.4 3 10.7582 3 11.2C3 11.6418 3.39505 12 3.88235 12H12.1176C12.6049 12 13 11.6418 13 11.2C13 10.7582 12.6049 10.4 12.1176 10.4H3.88235Z" fill="#37352F"/>
</svg>
